<svg version="1.1"
  xmlns="http://www.w3.org/2000/svg"
  xmlns:xlink="http://www.w3.org/1999/xlink" viewBox="0 -3.5 420 72">
  <title>ProductReview.com.au</title>

  <!-- Product -->
  <path d="M179.1 24.6L179.1 45.6 173.3 45.6 173.3 24.6 165.3 24.6 165.3 19.2 187.2 19.2 187.2 24.6 179.1 24.6ZM151.8 46C144 46 138.3 40 138.3 32.5L138.3 32.4C138.3 24.9 143.9 18.8 152 18.8 157 18.8 159.9 20.4 162.4 22.8L158.7 27.1C156.7 25.2 154.6 24.1 152 24.1 147.5 24.1 144.3 27.8 144.3 32.3L144.3 32.4C144.3 36.9 147.5 40.7 152 40.7 155 40.7 156.8 39.5 158.9 37.6L162.6 41.3C159.9 44.2 156.9 46 151.8 46ZM122.5 46C115.5 46 111.1 42 111.1 34.3L111.1 19.2 116.9 19.2 116.9 34.1C116.9 38.4 119.1 40.6 122.6 40.6 126.1 40.6 128.3 38.5 128.3 34.3L128.3 19.2 134.1 19.2 134.1 34.1C134.1 42.1 129.6 46 122.5 46ZM92.9 45.6L82.7 45.6 82.7 19.2 92.9 19.2C101.2 19.2 106.9 24.9 106.9 32.3L106.9 32.4C106.9 39.8 101.2 45.6 92.9 45.6ZM100.9 32.4C100.9 27.7 97.7 24.5 92.9 24.5L88.5 24.5 88.5 40.3 92.9 40.3C97.7 40.3 100.9 37.1 100.9 32.5L100.9 32.4ZM64.3 46C56.2 46 50.3 40 50.3 32.5L50.3 32.4C50.3 24.9 56.3 18.8 64.4 18.8 72.5 18.8 78.3 24.8 78.3 32.3L78.3 32.4C78.3 39.9 72.4 46 64.3 46ZM72.3 32.4C72.3 27.9 69 24.1 64.3 24.1 59.6 24.1 56.4 27.8 56.4 32.3L56.4 32.4C56.4 36.9 59.7 40.7 64.4 40.7 69 40.7 72.3 37 72.3 32.5L72.3 32.4ZM40.8 45.6L35.2 37.1 30.7 37.1 30.7 45.6 24.9 45.6 24.9 19.2 36.9 19.2C43.1 19.2 46.8 22.5 46.8 27.9L46.8 28C46.8 32.2 44.5 34.9 41.2 36.2L47.6 45.6 40.8 45.6ZM41 28.2C41 25.7 39.2 24.5 36.4 24.5L30.7 24.5 30.7 32 36.5 32C39.3 32 41 30.5 41 28.3L41 28.2ZM10.2 37.7L5.8 37.7 5.8 45.6 0 45.6 0 19.2 10.8 19.2C17 19.2 20.8 23 20.8 28.3L20.8 28.4C20.8 34.5 16.1 37.7 10.2 37.7ZM15 28.4C15 25.9 13.2 24.5 10.3 24.5L5.8 24.5 5.8 32.5 10.4 32.5C13.3 32.5 15 30.8 15 28.5L15 28.4Z" fill="#183029" />

  <!-- Bubble -->
  <path d="M240 19.2L226.5 26.9 211.1 23.7C211.1 23.7 213.2 21.9 217.5 19.4 222 16.8 224.8 16.3 224.8 16.3 224.8 16.3 227.9 16.2 232.7 17.2 237.7 18.1 240 19.2 240 19.2ZM244.1 29.9C244.9 35.9 244.8 39.5 244.8 39.5 244.8 39.5 243.8 40.7 239 44.3 234.8 47.4 231.1 49.2 231.1 49.2L227.9 28.7 241.8 20.9C241.8 20.9 243.2 23.7 244.1 29.9ZM225.6 29.1L228.7 49.6C228.7 49.6 224.6 48.9 220.1 47.1 214.8 45 212.3 43.6 212.3 43.6 212.3 43.6 211.2 40.8 210.4 35.1 209.6 30 209.9 25.8 209.9 25.8L225.6 29.1Z" fill="#183029" />

  <path d="M259.7 32.5C259.7 39.9 257.2 46.8 253 52.3L258 72C258 72 239.8 62.4 239.8 62.4 236 64.1 231.7 65 227.2 65 209.3 65 194.7 50.4 194.7 32.5 194.7 14.5 209.3 0 227.2 0 245.1 0 259.7 14.5 259.7 32.5ZM240 55.8L249 60.6 246.5 50.8C246.5 50.8 246.6 50.7 246.7 50.6 251.1 45.9 253.8 39.5 253.8 32.5 253.8 17.8 241.9 5.9 227.2 5.9 212.5 5.9 200.6 17.8 200.6 32.5 200.6 47.2 212.5 59.1 227.2 59.1 231.8 59.1 236.2 57.9 239.9 55.9 240 55.8 240 55.8 240 55.8Z" fill="#183029" />

  <!-- Review -->
  <path d="M410.6 45.8L405.5 45.8 399.6 28.6 393.6 45.8 388.6 45.8 379.6 19.3 385.8 19.3 391.3 37.1 397.2 19.2 402.2 19.2 408.1 37.1 413.5 19.3 419.6 19.3 410.6 45.8ZM364.8 35L364.8 40.5 379.1 40.5 379.1 45.6 359.1 45.6 359.1 19.3 374.5 19.3 376.2 24.5 364.8 24.5 364.8 29.8 377.2 29.8 377.2 35 364.8 35ZM346.9 45.6L346.9 19.3 352.7 19.3 352.7 45.6 346.9 45.6ZM332.2 45.8L327.1 45.8 316.5 19.3 322.8 19.3 329.7 37.9 336.6 19.3 342.9 19.3 332.2 45.8ZM301.9 35L301.9 40.5 316.2 40.5 316.2 45.6 296.2 45.6 296.2 19.3 311.6 19.3 313.3 24.5 301.9 24.5 301.9 29.8 314.3 29.8 314.3 35 301.9 35ZM284.9 45.6L279.3 37.2 274.7 37.2 274.7 45.6 268.9 45.6 268.9 19.3 281 19.3C287.2 19.3 290.9 22.6 290.9 28L290.9 28.1C290.9 32.3 288.6 35 285.3 36.2L291.7 45.6 284.9 45.6ZM285.1 28.3C285.1 25.8 283.3 24.5 280.5 24.5L274.7 24.5 274.7 32.1 280.6 32.1C283.4 32.1 285.1 30.6 285.1 28.4L285.1 28.3Z" fill="#183029" />

  <!-- .com.au -->
  <path d="M332.9 65.1C329.7 65.1 327.8 63.3 327.8 59.9L327.8 53.2 330.4 53.2 330.4 59.8C330.4 61.7 331.3 62.7 332.9 62.7 334.5 62.7 335.4 61.8 335.4 59.9L335.4 53.2 338 53.2 338 59.8C338 63.4 336 65.1 332.9 65.1ZM323.9 64.9L322.8 62.3 317.8 62.3 316.8 64.9 314.1 64.9 319.2 53.1 321.6 53.1 326.6 64.9 323.9 64.9ZM320.3 56.2L318.8 60 321.9 60 320.3 56.2ZM310 64.9L310 62.2 312.7 62.2 312.7 64.9 310 64.9ZM305 64.9L305 57.3 301.7 62.3 301.6 62.3 298.3 57.3 298.3 64.9 295.8 64.9 295.8 53.2 298.6 53.2 301.7 58.2 304.7 53.2 307.5 53.2 307.5 64.9 305 64.9ZM287.2 65.1C283.6 65.1 281 62.4 281 59.1L281 59.1C281 55.7 283.6 53 287.3 53 290.9 53 293.5 55.7 293.5 59L293.5 59.1C293.5 62.4 290.9 65.1 287.2 65.1ZM290.8 59.1C290.8 57 289.3 55.4 287.2 55.4 285.2 55.4 283.7 57 283.7 59L283.7 59.1C283.7 61.1 285.2 62.7 287.3 62.7 289.3 62.7 290.8 61.1 290.8 59.1L290.8 59.1ZM275 65.1C271.5 65.1 269 62.5 269 59.1L269 59.1C269 55.7 271.5 53 275.1 53 277.3 53 278.6 53.7 279.7 54.8L278.1 56.7C277.2 55.9 276.3 55.4 275.1 55.4 273.1 55.4 271.7 57 271.7 59L271.7 59.1C271.7 61.1 273.1 62.7 275.1 62.7 276.4 62.7 277.2 62.2 278.2 61.4L279.8 63C278.6 64.3 277.3 65.1 275 65.1ZM265 64.9L265 62.2 267.7 62.2 267.7 64.9 265 64.9Z" fill="#183029" />
</svg>
